<svg width="24" height="24" viewBox="0 0 24 24" fill="none" xmlns="http://www.w3.org/2000/svg">
<rect width="24" height="24" rx="4" fill="#131A0E"/>
<path d="M10.7598 17.3967C11.1486 18.1408 12.2883 18.771 13.4983 18.771C17.1017 18.771 19.6961 15.4559 19.6961 11.3397C19.6961 7.39442 16.4749 4.44135 12.3318 4.44135C7.17654 4.44135 4.44135 7.90056 4.44135 11.6715C4.44135 13.4246 5.37319 15.6034 6.86481 16.2972C7.09274 16.4045 7.21341 16.3575 7.26369 16.1397C7.30391 15.9721 7.50503 15.1643 7.59554 14.7855C7.62905 14.6648 7.59889 14.5341 7.51174 14.4436C7.019 13.8436 6.62347 12.7441 6.62347 11.7184C6.62347 9.0838 8.61788 6.53297 12.0168 6.53297C14.9531 6.53297 17.0078 8.53073 17.0078 11.3933C17.0078 14.6246 15.3754 16.8637 13.2503 16.8637C12.0771 16.8637 11.1989 15.895 11.4805 14.705C11.819 13.2838 12.4693 11.752 12.4693 10.7263C12.4693 9.80783 11.9765 9.04358 10.9575 9.04358C9.75755 9.04358 8.79553 10.2838 8.79553 11.943C8.79553 13.0022 9.15419 13.7162 9.15419 13.7162C9.15419 13.7162 7.97095 18.7207 7.75308 19.6525C7.50503 20.7251 7.619 22.2637 7.72626 23.2022C7.97095 23.2961 8.21229 23.3899 8.46369 23.467C8.94972 22.686 9.73408 21.3117 10.0123 20.2324C10.1598 19.6793 10.7598 17.3967 10.7598 17.3967Z" fill="white"/>
</svg>
